<?xml version="1.0" standalone="no"?><!DOCTYPE svg PUBLIC "-//W3C//DTD SVG 1.1//EN" "http://www.w3.org/Graphics/SVG/1.1/DTD/svg11.dtd"><svg t="1593785707625" class="icon" viewBox="112 130 760 760" version="1.1" xmlns="http://www.w3.org/2000/svg" p-id="1789" xmlns:xlink="http://www.w3.org/1999/xlink" width="200" height="200"><defs><style type="text/css"></style></defs><path fill="#0052d9" d="M529.066667 162.133333l83.626666 169.386667a42.666667 42.666667 0 0 0 32.213334 23.466667L832 382.08a42.666667 42.666667 0 0 1 23.68 72.96l-135.253333 132.053333a42.666667 42.666667 0 0 0-12.373334 37.76L739.84 810.666667a42.666667 42.666667 0 0 1-62.08 45.013333L510.506667 768a42.666667 42.666667 0 0 0-39.68 0l-167.253334 87.893333A42.666667 42.666667 0 0 1 241.493333 810.666667l32-186.24a42.666667 42.666667 0 0 0-12.373333-37.76L125.866667 455.04A42.666667 42.666667 0 0 1 149.333333 382.08l186.88-27.093333a42.666667 42.666667 0 0 0 32.213334-23.466667L452.266667 162.133333a42.666667 42.666667 0 0 1 76.8 0z" p-id="1790"></path></svg>
