<?xml version="1.0" standalone="no"?><!DOCTYPE svg PUBLIC "-//W3C//DTD SVG 1.1//EN" "http://www.w3.org/Graphics/SVG/1.1/DTD/svg11.dtd"><svg t="1593785651348" class="icon" viewBox="132 130 760 760" version="1.1" xmlns="http://www.w3.org/2000/svg" p-id="1666" xmlns:xlink="http://www.w3.org/1999/xlink" width="200" height="200"><defs><style type="text/css"></style></defs><path fill="#0052d9" d="M512 181.12l83.626667 169.386667a85.333333 85.333333 0 0 0 64 46.72l187.093333 27.306666-135.466667 131.84a85.333333 85.333333 0 0 0-24.533333 75.733334l31.786667 186.24-167.253334-87.893334a85.333333 85.333333 0 0 0-79.36 0l-167.466666 87.893334 32-186.24a85.333333 85.333333 0 0 0-24.533334-75.733334L177.066667 424.32l186.88-27.093333a85.333333 85.333333 0 0 0 64-46.72L512 181.12m0-42.666667a42.666667 42.666667 0 0 0-38.4 23.68l-83.626667 169.386667a42.666667 42.666667 0 0 1-32.213333 23.466667L170.666667 382.08a42.666667 42.666667 0 0 0-23.466667 72.96l135.253333 132.053333a42.666667 42.666667 0 0 1 12.373334 37.76L262.826667 810.666667a42.666667 42.666667 0 0 0 42.666666 50.133333 43.733333 43.733333 0 0 0 20.053334-5.12L492.16 768a42.666667 42.666667 0 0 1 39.68 0l167.253333 87.893333a43.733333 43.733333 0 0 0 20.053334 5.12 42.666667 42.666667 0 0 0 42.666666-50.133333l-32-186.24a42.666667 42.666667 0 0 1 12.373334-37.76l135.253333-132.053333A42.666667 42.666667 0 0 0 853.333333 382.08l-186.88-27.093333a42.666667 42.666667 0 0 1-32.213333-23.466667L550.4 162.133333A42.666667 42.666667 0 0 0 512 138.453333z" p-id="1667"></path></svg>
